<?xml version="1.0" standalone="no"?>
<!DOCTYPE svg PUBLIC "-//W3C//DTD SVG 20010904//EN"
 "http://www.w3.org/TR/2001/REC-SVG-20010904/DTD/svg10.dtd">
<svg version="1.0" xmlns="http://www.w3.org/2000/svg"
 width="500.000000pt" height="500.000000pt" viewBox="0 0 500.000000 500.000000"
 preserveAspectRatio="xMidYMid meet">

<g transform="translate(0.000000,500.000000) scale(0.100000,-0.100000)"
fill="#000000" stroke="none">
<path d="M756 3929 c-3 -24 -8 -75 -11 -114 -3 -38 -18 -143 -33 -233 -15 -90
-25 -166 -22 -170 7 -10 132 -119 275 -242 110 -94 143 -126 133 -135 -3 -3
-260 -14 -373 -16 l-60 -1 105 -33 c98 -31 294 -86 350 -99 24 -5 25 -8 27
-98 2 -116 16 -198 54 -313 36 -111 93 -215 153 -282 25 -28 46 -57 46 -64 0
-8 9 4 20 27 64 128 144 131 308 10 59 -44 62 -45 56 -21 -6 24 -5 26 22 19
38 -9 44 -13 44 -28 0 -55 122 -212 190 -245 l25 -12 -25 18 c-100 71 -157
198 -174 381 l-6 72 57 37 c79 51 194 88 343 113 69 11 132 20 140 20 10 0 19
-16 26 -44 l10 -43 -61 2 c-33 1 -46 1 -30 -1 89 -12 96 -15 107 -45 17 -50
28 -32 28 45 0 90 11 106 76 106 24 0 44 -3 44 -8 0 -12 -87 -157 -102 -169
-8 -7 -86 -17 -178 -23 -181 -12 -263 -26 -360 -63 -74 -27 -85 -47 -39 -64
30 -12 31 -11 15 6 -16 17 -14 19 36 38 51 20 54 20 73 3 28 -26 69 -40 115
-40 30 0 48 8 75 31 40 35 41 50 1 24 -20 -13 -32 -15 -55 -7 -22 8 -32 7 -44
-5 -14 -15 -18 -14 -43 2 -28 18 -28 18 -6 26 12 5 28 6 36 3 8 -3 17 -1 21 5
3 6 26 11 50 11 24 0 66 4 92 9 26 5 79 12 117 15 l69 6 -23 -25 -23 -25 25 0
c28 0 112 41 185 90 24 17 46 30 49 30 2 0 4 -11 4 -25 0 -16 6 -25 15 -25 12
0 15 -18 16 -97 1 -79 3 -90 10 -58 4 22 8 68 8 101 1 70 5 74 77 74 39 0 44
-3 50 -27 17 -76 22 -86 17 -30 -5 53 -4 57 16 57 16 0 21 6 21 25 0 16 -6 25
-16 25 -14 0 -16 8 -11 50 10 84 28 102 136 134 l54 16 -7 -62 c-7 -73 -2 -72
22 7 l18 60 71 11 c39 7 99 14 134 16 l64 3 6 -35 c6 -35 14 -29 21 15 3 16
12 21 51 23 31 2 47 -1 47 -9 0 -24 -32 -131 -59 -201 -25 -62 -29 -91 -34
-198 l-5 -125 49 100 c46 95 83 235 66 252 -4 3 -15 -2 -26 -11 -17 -15 -17
-13 3 26 12 24 30 64 40 88 16 39 19 42 28 26 6 -11 8 -41 4 -75 -12 -93 -16
-162 -8 -121 6 29 11 35 32 35 l25 0 -1 -105 c0 -93 -3 -111 -28 -162 -24 -50
-86 -118 -108 -118 -4 0 7 29 23 64 16 35 32 81 35 102 4 33 2 31 -11 -13 -23
-83 -70 -167 -100 -181 -37 -17 -44 -15 -39 11 3 16 1 15 -7 -5 -6 -16 -18
-28 -27 -28 -14 0 -14 -2 -3 -9 25 -16 -56 -128 -203 -281 l-140 -145 135 135
c142 142 193 198 195 215 3 18 46 85 54 85 5 0 15 3 24 6 29 11 17 -15 -26
-58 -35 -34 -37 -38 -11 -20 17 12 41 38 53 57 12 19 36 44 53 56 105 72 157
176 157 313 0 32 6 48 23 64 13 12 29 22 35 22 8 0 12 17 12 45 l0 45 -39 0
c-38 0 -40 1 -70 66 -30 65 -30 65 -15 122 8 31 18 103 21 160 3 57 9 99 13
95 11 -12 56 -144 90 -268 18 -66 35 -159 42 -233 6 -67 13 -120 16 -117 13
12 18 210 11 352 -10 180 -28 273 -69 361 -17 36 -29 67 -26 69 6 6 178 -166
251 -252 38 -44 93 -117 122 -162 30 -46 56 -83 57 -83 2 0 2 37 0 83 -10 205
-67 419 -140 525 -94 136 -282 270 -439 313 -111 30 -119 36 -55 43 206 23
490 0 662 -54 34 -11 64 -18 65 -16 7 7 -131 90 -188 113 -104 42 -245 73
-364 79 -127 8 -204 -3 -335 -47 -47 -16 -90 -29 -97 -29 -6 0 -51 23 -100 51
-158 92 -354 165 -519 194 -113 20 -355 20 -467 0 -178 -31 -391 -119 -557
-229 -141 -94 -259 -230 -348 -399 l-20 -38 -83 123 c-94 137 -83 120 -238
375 -154 253 -138 234 -145 182z m2442 -863 c82 -119 82 -106 1 -166 -39 -28
-73 -50 -74 -48 -2 2 -5 74 -7 160 -5 182 -7 181 80 54z m-468 -141 c-13 -75
-60 -231 -92 -307 -20 -46 -20 -46 -79 -53 -33 -4 -63 -5 -66 -2 -3 3 15 16
40 27 47 22 74 46 64 56 -2 3 -22 -4 -43 -15 -61 -33 -64 -30 -48 42 21 91 93
231 166 322 l63 80 3 -40 c2 -22 -2 -71 -8 -110z m754 0 c13 -27 27 -62 30
-77 6 -26 3 -25 -40 18 -41 42 -46 52 -51 103 l-5 56 21 -25 c12 -14 32 -47
45 -75z m-406 -85 c1 -30 -9 -46 -64 -105 l-65 -70 46 95 c25 52 51 113 58
135 l12 40 6 -30 c4 -16 7 -46 7 -65z m251 -5 c18 -39 37 -82 41 -96 l8 -26
-102 -12 c-55 -7 -113 -15 -128 -18 l-28 -5 0 59 0 60 58 45 c67 52 93 68 107
65 6 -2 25 -34 44 -72z m198 -48 c2 -4 2 -21 -2 -37 -6 -28 -10 -30 -53 -30
l-47 0 3 70 4 70 45 -32 c24 -18 47 -36 50 -41z m-1373 12 c-20 -39 -215 -239
-233 -239 -15 0 9 36 93 139 54 65 145 146 154 136 2 -2 -4 -18 -14 -36z m245
-99 c1 -60 -2 -110 -6 -110 -9 0 -146 33 -151 36 -4 2 149 184 154 184 1 0 3
-49 3 -110z m689 -2 c-2 -17 -14 -24 -53 -33 -27 -6 -60 -17 -72 -23 -29 -16
-34 -15 -26 4 3 8 11 13 18 10 7 -2 37 17 66 44 42 37 56 45 62 34 5 -8 7 -24
5 -36z m-1245 -88 c-16 -40 -29 -94 -33 -140 l-6 -75 -13 56 c-12 48 -11 63 3
112 14 48 62 124 72 114 2 -1 -9 -32 -23 -67z m209 -37 c-27 -38 -148 -153
-160 -153 -6 0 -25 -12 -42 -26 -17 -15 -33 -24 -35 -22 -8 7 41 102 62 120
23 21 173 108 186 108 5 0 0 -12 -11 -27z m281 -2 l66 -17 -137 -21 c-75 -12
-146 -25 -157 -28 -12 -4 -6 4 15 21 19 16 46 39 60 51 27 25 38 24 153 -6z
m1277 -41 c0 -11 -4 -20 -10 -20 -5 0 -10 9 -10 20 0 11 5 20 10 20 6 0 10 -9
10 -20z m-750 -40 l0 -50 -49 0 c-27 0 -57 -3 -67 -7 -9 -3 -15 -2 -13 4 5 12
111 101 122 102 4 1 7 -21 7 -49z m-1120 -18 c0 -5 18 -38 40 -75 22 -36 40
-79 40 -94 0 -27 -4 -30 -50 -39 l-50 -11 6 34 c7 35 -10 45 -35 21 -10 -11
-11 -4 -6 37 8 60 33 135 46 135 5 0 9 -4 9 -8z m1767 -64 c-5 -35 -23 -97
-40 -138 l-32 -75 -3 60 c-6 102 5 143 46 181 20 19 37 34 38 34 0 0 -3 -28
-9 -62z"/>
<path d="M3024 2528 c-43 -32 -49 -38 -38 -38 10 1 83 59 73 60 -4 0 -19 -10
-35 -22z"/>
<path d="M3240 2500 c-69 -10 -252 -59 -265 -71 -6 -6 -1 -17 12 -31 31 -30
104 -31 134 -1 l22 22 -40 -3 c-23 -2 -46 -7 -53 -11 -6 -4 -18 -1 -26 7 -13
13 -1 18 93 41 64 16 136 27 177 27 l69 0 -6 -30 c-4 -16 -5 -30 -3 -30 9 0
46 72 41 81 -7 10 -75 10 -155 -1z"/>
<path d="M3552 2340 c0 -19 2 -27 5 -17 2 9 2 25 0 35 -3 9 -5 1 -5 -18z"/>
<path d="M3230 2308 c-14 -5 -47 -10 -75 -10 l-50 0 39 -9 c40 -10 99 2 111
22 7 11 7 11 -25 -3z"/>
<path d="M2330 2188 c-103 -54 -93 -53 -245 -33 l-40 5 45 -15 c69 -23 144
-19 201 10 63 31 139 76 139 81 0 6 3 7 -100 -48z"/>
<path d="M1459 2143 c-13 -15 -12 -15 8 -5 12 7 34 12 49 12 26 0 26 -1 11
-18 -43 -47 10 -166 107 -246 41 -33 50 -36 109 -36 120 0 155 -9 241 -66 48
-32 67 -41 46 -23 -48 42 -130 89 -157 89 -25 0 -57 41 -75 96 -11 31 -34 54
-127 126 -102 78 -119 88 -157 88 -27 0 -46 -6 -55 -17z m128 -23 l25 -20 -28
-11 c-16 -5 -37 -18 -46 -26 -17 -15 -18 -14 -18 11 0 32 16 66 31 66 6 0 22
-9 36 -20z m179 -143 c13 -16 24 -37 24 -46 0 -10 9 -30 21 -45 l20 -26 -75 0
-75 0 -58 58 c-97 96 -105 133 -32 157 32 11 37 10 93 -29 32 -23 69 -54 82
-69z"/>
<path d="M2691 2104 c-26 -60 -83 -122 -150 -166 -25 -15 -40 -28 -34 -28 17
0 131 88 152 118 27 39 63 112 59 122 -2 5 -14 -16 -27 -46z"/>
<path d="M2965 2115 c-27 -18 -61 -44 -74 -59 -22 -24 -23 -28 -10 -42 9 -8
29 -16 45 -17 26 -2 32 4 63 65 18 37 32 71 30 76 -2 6 -26 -5 -54 -23z m35 0
c0 -2 -11 -29 -24 -60 -26 -57 -36 -63 -74 -42 -23 13 -23 13 27 60 44 41 71
57 71 42z"/>
<path d="M3402 2105 c0 -16 2 -22 5 -12 2 9 2 23 0 30 -3 6 -5 -1 -5 -18z"/>
<path d="M1420 2076 c-1 -27 100 -193 137 -226 39 -34 183 -118 183 -106 0 3
-32 22 -71 42 -96 51 -146 102 -201 209 -26 50 -47 86 -48 81z"/>
<path d="M3038 2033 c7 -3 16 -2 19 1 4 3 -2 6 -13 5 -11 0 -14 -3 -6 -6z"/>
<path d="M3120 2009 c14 -4 70 -7 125 -7 125 0 105 6 -40 11 -60 2 -99 0 -85
-4z"/>
<path d="M2418 1883 c7 -3 16 -2 19 1 4 3 -2 6 -13 5 -11 0 -14 -3 -6 -6z"/>
<path d="M2378 1873 c7 -3 16 -2 19 1 4 3 -2 6 -13 5 -11 0 -14 -3 -6 -6z"/>
<path d="M2108 1863 c7 -3 16 -2 19 1 4 3 -2 6 -13 5 -11 0 -14 -3 -6 -6z"/>
<path d="M2313 1863 c9 -2 25 -2 35 0 9 3 1 5 -18 5 -19 0 -27 -2 -17 -5z"/>
<path d="M2178 1853 c23 -2 59 -2 80 0 20 2 1 4 -43 4 -44 0 -61 -2 -37 -4z"/>
<path d="M2951 1789 c-42 -16 -15 -21 31 -5 31 11 36 15 18 15 -14 0 -36 -5
-49 -10z"/>
<path d="M1770 1725 c14 -8 30 -14 35 -14 6 0 -1 6 -15 14 -14 8 -29 14 -35
14 -5 0 1 -6 15 -14z"/>
<path d="M1872 1686 c4 -5 -27 -55 -67 -112 -41 -57 -72 -104 -70 -104 3 0 41
20 86 44 77 41 81 43 129 33 45 -9 50 -12 50 -36 0 -17 -11 -37 -27 -52 -35
-32 -244 -170 -299 -197 -97 -49 -154 -158 -233 -447 -40 -146 -45 -198 -28
-262 l14 -52 -32 -31 c-62 -60 -62 -66 -10 -171 l47 -93 -17 -81 c-9 -44 -19
-90 -22 -102 l-5 -23 736 0 c432 0 736 4 736 9 0 25 -33 303 -50 426 -11 77
-27 203 -35 280 -8 77 -23 177 -32 223 l-17 82 -106 89 c-58 49 -134 119 -170
156 -53 54 -60 66 -40 61 15 -3 11 0 -10 9 -42 19 -191 174 -222 232 -28 52
-15 69 20 26 34 -40 109 -84 204 -119 56 -20 97 -28 179 -32 103 -4 108 -3
191 30 l86 34 6 -44 c11 -80 8 -98 -19 -112 -14 -7 -23 -15 -21 -17 2 -3 15 3
29 11 l24 16 12 -102 c23 -184 51 -309 117 -513 63 -194 153 -510 189 -668
l19 -77 108 0 108 0 -10 25 c-5 14 -6 25 -2 25 4 1 50 7 102 14 86 13 96 13
108 -2 20 -26 14 -10 -32 89 -24 52 -67 155 -95 230 l-51 137 25 83 c28 91 32
120 10 74 -13 -29 -13 -28 -14 36 -1 58 -5 72 -33 110 -17 24 -40 52 -50 63
-16 17 -18 38 -18 178 0 87 4 158 8 158 4 0 14 -6 21 -12 21 -20 -7 32 -33 62
-13 14 -38 50 -56 80 -44 73 -96 137 -126 157 -14 8 -63 19 -111 24 -47 5 -89
11 -91 14 -3 3 3 15 14 27 l19 23 -25 -21 c-47 -41 -87 -54 -158 -54 -118 0
-386 56 -597 125 -94 30 -104 32 -173 23 -70 -9 -114 -5 -178 18 -11 4 -16 4
-12 0z m226 -48 c-11 -16 -25 -23 -47 -23 -17 0 -31 3 -31 7 0 11 52 37 74 38
17 0 17 -2 4 -22z m139 -9 c63 -24 394 -102 483 -113 l95 -13 -40 -17 c-133
-57 -336 -33 -490 59 -98 59 -131 116 -48 84z m-222 -29 c3 -6 -1 -7 -9 -4
-18 7 -21 14 -7 14 6 0 13 -4 16 -10z m35 -10 c0 -5 -5 -10 -11 -10 -5 0 -7 5
-4 10 3 6 8 10 11 10 2 0 4 -4 4 -10z m-500 -534 c0 -3 -9 -20 -19 -38 -10
-18 -22 -48 -26 -66 -4 -18 -9 -31 -12 -28 -10 10 31 136 44 136 7 0 13 -2 13
-4z m-74 -219 c-17 -53 -43 -103 -32 -62 21 84 40 138 44 127 2 -8 -3 -37 -12
-65z m-47 -247 c0 -23 -1 -23 -9 -5 -5 11 -9 29 -9 40 -1 17 1 17 9 5 5 -8 9
-26 9 -40z m-4 -130 c-3 -5 -11 -10 -16 -10 -6 0 -7 5 -4 10 3 6 11 10 16 10
6 0 7 -4 4 -10z m-52 -58 c-3 -12 -9 -22 -14 -22 -12 0 -11 7 2 32 13 25 20
19 12 -10z"/>
<path d="M2760 1315 c-19 -7 -28 -14 -20 -14 8 0 29 6 45 14 39 17 21 18 -25
0z"/>
<path d="M2455 1310 c19 -8 73 -14 64 -6 -2 2 -22 6 -44 9 -28 5 -34 4 -20 -3z"/>
<path d="M2573 1293 c26 -2 68 -2 95 0 26 2 4 3 -48 3 -52 0 -74 -1 -47 -3z"/>
<path d="M3467 1074 l56 -116 -7 -100 c-3 -56 -9 -112 -12 -127 -4 -20 -3 -22
5 -11 12 17 9 21 55 -63 l37 -68 -21 -34 c-12 -19 -19 -35 -17 -35 3 0 15 16
27 35 l21 34 -45 83 -45 83 6 100 c5 108 -1 131 -80 283 -50 95 -37 54 20 -64z"/>
<path d="M3540 490 c-6 -11 -8 -20 -6 -20 3 0 10 9 16 20 6 11 8 20 6 20 -3 0
-10 -9 -16 -20z"/>
<path d="M3530 387 c0 -2 15 -16 33 -33 l32 -29 -29 33 c-28 30 -36 37 -36 29z"/>
<path d="M3600 326 c0 -2 8 -10 18 -17 15 -13 16 -12 3 4 -13 16 -21 21 -21
13z"/>
<path d="M3664 250 c53 -61 63 -71 39 -35 -12 17 -34 41 -49 55 -19 17 -15 10
10 -20z"/>
<path d="M3731 160 c14 -31 19 -36 19 -24 0 6 -7 19 -16 30 -14 18 -14 18 -3
-6z"/>
<path d="M3771 24 c0 -11 3 -14 6 -6 3 7 2 16 -1 19 -3 4 -6 -2 -5 -13z"/>
</g>
</svg>
